<mxfile host="app.diagrams.net" modified="2024-03-29T08:44:41.594Z" agent="Mozilla/5.0 (Macintosh; Intel Mac OS X 10_15_7) AppleWebKit/537.36 (KHTML, like Gecko) Chrome/123.0.0.0 Safari/537.36" etag="hCHNe6rwBkAXXQ2rZo5Y" version="24.2.1" type="github">
  <diagram id="MiOrzETxx8iC8Nfip_mO" name="第 1 页">
    <mxGraphModel dx="1136" dy="698" grid="1" gridSize="10" guides="1" tooltips="1" connect="1" arrows="1" fold="1" page="1" pageScale="1" pageWidth="827" pageHeight="1169" math="0" shadow="0">
      <root>
        <mxCell id="0" />
        <mxCell id="1" parent="0" />
        <mxCell id="ADFqfZhxBl0647d1QpZo-20" value="活动已开始" style="whiteSpace=wrap;html=1;aspect=fixed;horizontal=1;fontStyle=1;align=center;verticalAlign=top;fillColor=#f5f5f5;fontColor=#333333;strokeColor=#666666;" vertex="1" parent="1">
          <mxGeometry x="530" y="50" width="480" height="480" as="geometry" />
        </mxCell>
        <mxCell id="ADFqfZhxBl0647d1QpZo-19" value="活动未开始" style="whiteSpace=wrap;html=1;aspect=fixed;horizontal=1;fontStyle=1;align=center;verticalAlign=top;fillColor=#dae8fc;strokeColor=#6c8ebf;" vertex="1" parent="1">
          <mxGeometry x="50" y="50" width="480" height="480" as="geometry" />
        </mxCell>
        <mxCell id="ADFqfZhxBl0647d1QpZo-9" style="edgeStyle=orthogonalEdgeStyle;rounded=0;orthogonalLoop=1;jettySize=auto;html=1;exitX=1;exitY=0.5;exitDx=0;exitDy=0;entryX=0;entryY=0.5;entryDx=0;entryDy=0;" edge="1" parent="1" source="ADFqfZhxBl0647d1QpZo-1" target="ADFqfZhxBl0647d1QpZo-8">
          <mxGeometry relative="1" as="geometry">
            <Array as="points">
              <mxPoint x="230" y="270" />
              <mxPoint x="230" y="100" />
            </Array>
          </mxGeometry>
        </mxCell>
        <mxCell id="ADFqfZhxBl0647d1QpZo-33" value="人数上限" style="edgeLabel;html=1;align=center;verticalAlign=middle;resizable=0;points=[];" vertex="1" connectable="0" parent="ADFqfZhxBl0647d1QpZo-9">
          <mxGeometry x="0.8019" y="1" relative="1" as="geometry">
            <mxPoint x="-12" y="1" as="offset" />
          </mxGeometry>
        </mxCell>
        <mxCell id="ADFqfZhxBl0647d1QpZo-17" style="edgeStyle=orthogonalEdgeStyle;rounded=0;orthogonalLoop=1;jettySize=auto;html=1;exitX=1;exitY=0.5;exitDx=0;exitDy=0;entryX=0;entryY=0.5;entryDx=0;entryDy=0;" edge="1" parent="1" source="ADFqfZhxBl0647d1QpZo-1" target="ADFqfZhxBl0647d1QpZo-16">
          <mxGeometry relative="1" as="geometry" />
        </mxCell>
        <mxCell id="ADFqfZhxBl0647d1QpZo-35" value="已报名" style="edgeLabel;html=1;align=center;verticalAlign=middle;resizable=0;points=[];" vertex="1" connectable="0" parent="ADFqfZhxBl0647d1QpZo-17">
          <mxGeometry x="0.2111" y="1" relative="1" as="geometry">
            <mxPoint as="offset" />
          </mxGeometry>
        </mxCell>
        <mxCell id="ADFqfZhxBl0647d1QpZo-22" style="edgeStyle=orthogonalEdgeStyle;rounded=0;orthogonalLoop=1;jettySize=auto;html=1;exitX=1;exitY=0.5;exitDx=0;exitDy=0;entryX=0;entryY=0.5;entryDx=0;entryDy=0;" edge="1" parent="1" source="ADFqfZhxBl0647d1QpZo-1" target="ADFqfZhxBl0647d1QpZo-21">
          <mxGeometry relative="1" as="geometry">
            <Array as="points">
              <mxPoint x="230" y="270" />
              <mxPoint x="230" y="430" />
            </Array>
          </mxGeometry>
        </mxCell>
        <mxCell id="ADFqfZhxBl0647d1QpZo-40" value="报名审核" style="edgeLabel;html=1;align=center;verticalAlign=middle;resizable=0;points=[];" vertex="1" connectable="0" parent="ADFqfZhxBl0647d1QpZo-22">
          <mxGeometry x="0.6399" y="1" relative="1" as="geometry">
            <mxPoint x="8" y="1" as="offset" />
          </mxGeometry>
        </mxCell>
        <mxCell id="ADFqfZhxBl0647d1QpZo-23" style="edgeStyle=orthogonalEdgeStyle;rounded=0;orthogonalLoop=1;jettySize=auto;html=1;exitX=1;exitY=0.5;exitDx=0;exitDy=0;entryX=0;entryY=0.5;entryDx=0;entryDy=0;" edge="1" parent="1" source="ADFqfZhxBl0647d1QpZo-1" target="ADFqfZhxBl0647d1QpZo-10">
          <mxGeometry relative="1" as="geometry">
            <Array as="points">
              <mxPoint x="230" y="270" />
              <mxPoint x="230" y="190" />
            </Array>
          </mxGeometry>
        </mxCell>
        <mxCell id="ADFqfZhxBl0647d1QpZo-34" value="时间截止" style="edgeLabel;html=1;align=center;verticalAlign=middle;resizable=0;points=[];" vertex="1" connectable="0" parent="ADFqfZhxBl0647d1QpZo-23">
          <mxGeometry x="0.6989" y="1" relative="1" as="geometry">
            <mxPoint x="-12" y="1" as="offset" />
          </mxGeometry>
        </mxCell>
        <mxCell id="ADFqfZhxBl0647d1QpZo-1" value="我要报名" style="rounded=0;whiteSpace=wrap;html=1;fillColor=#d5e8d4;strokeColor=#82b366;" vertex="1" parent="1">
          <mxGeometry x="80" y="240" width="120" height="60" as="geometry" />
        </mxCell>
        <mxCell id="ADFqfZhxBl0647d1QpZo-21" value="需审核" style="rounded=0;whiteSpace=wrap;html=1;align=center;verticalAlign=top;fontStyle=1" vertex="1" parent="1">
          <mxGeometry x="310" y="340" width="650" height="170" as="geometry" />
        </mxCell>
        <mxCell id="ADFqfZhxBl0647d1QpZo-14" style="edgeStyle=orthogonalEdgeStyle;rounded=0;orthogonalLoop=1;jettySize=auto;html=1;exitX=1;exitY=0.5;exitDx=0;exitDy=0;" edge="1" parent="1" source="ADFqfZhxBl0647d1QpZo-5" target="ADFqfZhxBl0647d1QpZo-13">
          <mxGeometry relative="1" as="geometry">
            <Array as="points">
              <mxPoint x="470" y="430" />
              <mxPoint x="470" y="390" />
            </Array>
          </mxGeometry>
        </mxCell>
        <mxCell id="ADFqfZhxBl0647d1QpZo-41" value="拒绝" style="edgeLabel;html=1;align=center;verticalAlign=middle;resizable=0;points=[];" vertex="1" connectable="0" parent="ADFqfZhxBl0647d1QpZo-14">
          <mxGeometry x="0.4562" y="-1" relative="1" as="geometry">
            <mxPoint x="10" y="-1" as="offset" />
          </mxGeometry>
        </mxCell>
        <mxCell id="ADFqfZhxBl0647d1QpZo-15" style="edgeStyle=orthogonalEdgeStyle;rounded=0;orthogonalLoop=1;jettySize=auto;html=1;exitX=1;exitY=0.5;exitDx=0;exitDy=0;entryX=0;entryY=0.5;entryDx=0;entryDy=0;" edge="1" parent="1" source="ADFqfZhxBl0647d1QpZo-5" target="ADFqfZhxBl0647d1QpZo-12">
          <mxGeometry relative="1" as="geometry">
            <Array as="points">
              <mxPoint x="470" y="430" />
              <mxPoint x="470" y="470" />
            </Array>
          </mxGeometry>
        </mxCell>
        <mxCell id="ADFqfZhxBl0647d1QpZo-42" value="通过" style="edgeLabel;html=1;align=center;verticalAlign=middle;resizable=0;points=[];" vertex="1" connectable="0" parent="ADFqfZhxBl0647d1QpZo-15">
          <mxGeometry x="0.6301" y="-1" relative="1" as="geometry">
            <mxPoint as="offset" />
          </mxGeometry>
        </mxCell>
        <mxCell id="ADFqfZhxBl0647d1QpZo-5" value="报名审核中" style="whiteSpace=wrap;html=1;rounded=0;fillColor=#fff2cc;strokeColor=#d6b656;" vertex="1" parent="1">
          <mxGeometry x="320" y="400" width="120" height="60" as="geometry" />
        </mxCell>
        <mxCell id="ADFqfZhxBl0647d1QpZo-25" style="edgeStyle=orthogonalEdgeStyle;rounded=0;orthogonalLoop=1;jettySize=auto;html=1;exitX=1;exitY=0.5;exitDx=0;exitDy=0;entryX=0;entryY=0.5;entryDx=0;entryDy=0;" edge="1" parent="1" source="ADFqfZhxBl0647d1QpZo-8" target="ADFqfZhxBl0647d1QpZo-18">
          <mxGeometry relative="1" as="geometry">
            <Array as="points">
              <mxPoint x="670" y="100" />
              <mxPoint x="670" y="190" />
            </Array>
          </mxGeometry>
        </mxCell>
        <mxCell id="ADFqfZhxBl0647d1QpZo-36" value="取消活动、活动已开始" style="edgeLabel;html=1;align=center;verticalAlign=middle;resizable=0;points=[];" vertex="1" connectable="0" parent="ADFqfZhxBl0647d1QpZo-25">
          <mxGeometry x="-0.2135" y="1" relative="1" as="geometry">
            <mxPoint x="-50" y="1" as="offset" />
          </mxGeometry>
        </mxCell>
        <mxCell id="ADFqfZhxBl0647d1QpZo-8" value="已报满" style="whiteSpace=wrap;html=1;rounded=0;" vertex="1" parent="1">
          <mxGeometry x="310" y="70" width="120" height="60" as="geometry" />
        </mxCell>
        <mxCell id="ADFqfZhxBl0647d1QpZo-24" style="edgeStyle=orthogonalEdgeStyle;rounded=0;orthogonalLoop=1;jettySize=auto;html=1;exitX=1;exitY=0.5;exitDx=0;exitDy=0;entryX=0;entryY=0.5;entryDx=0;entryDy=0;" edge="1" parent="1" source="ADFqfZhxBl0647d1QpZo-10" target="ADFqfZhxBl0647d1QpZo-18">
          <mxGeometry relative="1" as="geometry" />
        </mxCell>
        <mxCell id="ADFqfZhxBl0647d1QpZo-10" value="报名已截止" style="whiteSpace=wrap;html=1;rounded=0;" vertex="1" parent="1">
          <mxGeometry x="310" y="160" width="120" height="60" as="geometry" />
        </mxCell>
        <mxCell id="ADFqfZhxBl0647d1QpZo-30" style="edgeStyle=orthogonalEdgeStyle;rounded=0;orthogonalLoop=1;jettySize=auto;html=1;exitX=1;exitY=0.5;exitDx=0;exitDy=0;entryX=0;entryY=0.5;entryDx=0;entryDy=0;" edge="1" parent="1" source="ADFqfZhxBl0647d1QpZo-12" target="ADFqfZhxBl0647d1QpZo-28">
          <mxGeometry relative="1" as="geometry">
            <Array as="points">
              <mxPoint x="790" y="470" />
              <mxPoint x="790" y="430" />
            </Array>
          </mxGeometry>
        </mxCell>
        <mxCell id="ADFqfZhxBl0647d1QpZo-32" value="取消活动、签到开始" style="edgeLabel;html=1;align=center;verticalAlign=middle;resizable=0;points=[];" vertex="1" connectable="0" parent="ADFqfZhxBl0647d1QpZo-30">
          <mxGeometry x="-0.6319" y="1" relative="1" as="geometry">
            <mxPoint x="23" y="1" as="offset" />
          </mxGeometry>
        </mxCell>
        <mxCell id="ADFqfZhxBl0647d1QpZo-12" value="报名成功" style="whiteSpace=wrap;html=1;rounded=0;fillColor=#d5e8d4;strokeColor=#82b366;" vertex="1" parent="1">
          <mxGeometry x="550" y="440" width="120" height="60" as="geometry" />
        </mxCell>
        <mxCell id="ADFqfZhxBl0647d1QpZo-29" style="edgeStyle=orthogonalEdgeStyle;rounded=0;orthogonalLoop=1;jettySize=auto;html=1;exitX=1;exitY=0.5;exitDx=0;exitDy=0;" edge="1" parent="1" source="ADFqfZhxBl0647d1QpZo-13" target="ADFqfZhxBl0647d1QpZo-28">
          <mxGeometry relative="1" as="geometry">
            <Array as="points">
              <mxPoint x="790" y="390" />
              <mxPoint x="790" y="430" />
            </Array>
          </mxGeometry>
        </mxCell>
        <mxCell id="ADFqfZhxBl0647d1QpZo-31" value="取消活动" style="edgeLabel;html=1;align=center;verticalAlign=middle;resizable=0;points=[];" vertex="1" connectable="0" parent="ADFqfZhxBl0647d1QpZo-29">
          <mxGeometry x="-0.6333" y="2" relative="1" as="geometry">
            <mxPoint y="1" as="offset" />
          </mxGeometry>
        </mxCell>
        <mxCell id="ADFqfZhxBl0647d1QpZo-13" value="报名失败" style="whiteSpace=wrap;html=1;rounded=0;fillColor=#f5f5f5;fontColor=#333333;strokeColor=#666666;" vertex="1" parent="1">
          <mxGeometry x="550" y="360" width="120" height="60" as="geometry" />
        </mxCell>
        <mxCell id="ADFqfZhxBl0647d1QpZo-26" value="&lt;span style=&quot;color: rgb(0, 0, 0); font-family: Helvetica; font-size: 11px; font-style: normal; font-variant-ligatures: normal; font-variant-caps: normal; font-weight: 400; letter-spacing: normal; orphans: 2; text-align: center; text-indent: 0px; text-transform: none; widows: 2; word-spacing: 0px; -webkit-text-stroke-width: 0px; white-space: nowrap; background-color: rgb(255, 255, 255); text-decoration-thickness: initial; text-decoration-style: initial; text-decoration-color: initial; display: inline !important; float: none;&quot;&gt;取消活动、活动已开始&lt;/span&gt;" style="edgeStyle=orthogonalEdgeStyle;rounded=0;orthogonalLoop=1;jettySize=auto;html=1;exitX=1;exitY=0.5;exitDx=0;exitDy=0;entryX=0;entryY=0.5;entryDx=0;entryDy=0;" edge="1" parent="1" source="ADFqfZhxBl0647d1QpZo-16" target="ADFqfZhxBl0647d1QpZo-18">
          <mxGeometry x="-0.4595" relative="1" as="geometry">
            <mxPoint x="650" y="190" as="targetPoint" />
            <Array as="points">
              <mxPoint x="670" y="270" />
              <mxPoint x="670" y="190" />
            </Array>
            <mxPoint as="offset" />
          </mxGeometry>
        </mxCell>
        <mxCell id="ADFqfZhxBl0647d1QpZo-38" style="edgeStyle=orthogonalEdgeStyle;rounded=0;orthogonalLoop=1;jettySize=auto;html=1;exitX=0.5;exitY=1;exitDx=0;exitDy=0;entryX=0.5;entryY=1;entryDx=0;entryDy=0;" edge="1" parent="1" source="ADFqfZhxBl0647d1QpZo-16" target="ADFqfZhxBl0647d1QpZo-1">
          <mxGeometry relative="1" as="geometry" />
        </mxCell>
        <mxCell id="ADFqfZhxBl0647d1QpZo-39" value="取消报名" style="edgeLabel;html=1;align=center;verticalAlign=middle;resizable=0;points=[];" vertex="1" connectable="0" parent="ADFqfZhxBl0647d1QpZo-38">
          <mxGeometry x="0.0106" y="-2" relative="1" as="geometry">
            <mxPoint x="17" as="offset" />
          </mxGeometry>
        </mxCell>
        <mxCell id="ADFqfZhxBl0647d1QpZo-16" value="取消报名" style="whiteSpace=wrap;html=1;rounded=0;" vertex="1" parent="1">
          <mxGeometry x="310" y="240" width="120" height="60" as="geometry" />
        </mxCell>
        <mxCell id="ADFqfZhxBl0647d1QpZo-18" value="隐藏" style="whiteSpace=wrap;html=1;rounded=0;" vertex="1" parent="1">
          <mxGeometry x="720" y="160" width="120" height="60" as="geometry" />
        </mxCell>
        <mxCell id="ADFqfZhxBl0647d1QpZo-28" value="隐藏" style="whiteSpace=wrap;html=1;rounded=0;" vertex="1" parent="1">
          <mxGeometry x="827" y="400" width="120" height="60" as="geometry" />
        </mxCell>
        <mxCell id="ADFqfZhxBl0647d1QpZo-37" value="取消活动、活动已开始" style="edgeLabel;html=1;align=center;verticalAlign=middle;resizable=0;points=[];" vertex="1" connectable="0" parent="1">
          <mxGeometry x="530.0047826086958" y="190.0000000000001" as="geometry" />
        </mxCell>
      </root>
    </mxGraphModel>
  </diagram>
</mxfile>
